<svg viewBox="0 0 64 64" xmlns="http://www.w3.org/2000/svg">
  <defs>
    <linearGradient id="bgGrad" x1="0%" y1="0%" x2="100%" y2="100%">
      <stop offset="0%" stop-color="#6C63FF"/>
      <stop offset="50%" stop-color="#8B7CF6"/>
      <stop offset="100%" stop-color="#38BDF8"/>
    </linearGradient>
    <linearGradient id="pageGrad" x1="0%" y1="0%" x2="0%" y2="100%">
      <stop offset="0%" stop-color="#FFFFFF"/>
      <stop offset="100%" stop-color="#F1EFFF"/>
    </linearGradient>
  </defs>

  <rect x="2" y="2" width="60" height="60" rx="16" fill="url(#bgGrad)"/>
  <rect x="2.5" y="2.5" width="59" height="59" rx="15.5" fill="none" stroke="rgba(255,255,255,0.15)" stroke-width="1"/>

  <rect x="16" y="15" width="22" height="30" rx="3" fill="#FFFFFF" fill-opacity="0.28" transform="rotate(-10 27 30)"/>

  <path d="M 18 16 
           L 34 16 
           Q 37 16 37 19 
           L 37 41 
           Q 37 44 34 44 
           L 21 44 
           Q 18 44 18 41 
           Z" 
        fill="url(#pageGrad)"/>
  <path d="M 34 16 Q 37 16 37 19 L 37 23 Z" fill="#C7C0FF" opacity="0.7"/>

  <line x1="22" y1="23" x2="33" y2="23" stroke="#8B7CF6" stroke-width="1.6" stroke-linecap="round" opacity="0.65"/>
  <line x1="22" y1="27.5" x2="33" y2="27.5" stroke="#8B7CF6" stroke-width="1.6" stroke-linecap="round" opacity="0.5"/>
  <line x1="22" y1="32" x2="29" y2="32" stroke="#8B7CF6" stroke-width="1.6" stroke-linecap="round" opacity="0.4"/>

  <circle cx="42" cy="40" r="11" fill="#38BDF8" opacity="0.16"/>
  <line x1="37.5" y1="36" x2="42" y2="40" stroke="#FFFFFF" stroke-width="1.5" stroke-linecap="round" opacity="0.85"/>
  <line x1="48" y1="34" x2="42" y2="40" stroke="#FFFFFF" stroke-width="1.5" stroke-linecap="round" opacity="0.85"/>
  <line x1="48" y1="46" x2="42" y2="40" stroke="#FFFFFF" stroke-width="1.5" stroke-linecap="round" opacity="0.85"/>
  <circle cx="48" cy="34" r="2.6" fill="#FFFFFF"/>
  <circle cx="48" cy="46" r="2.6" fill="#FFFFFF"/>
  <circle cx="42" cy="40" r="4.3" fill="#FFFFFF"/>
  <circle cx="42" cy="40" r="4.3" fill="none" stroke="#6C63FF" stroke-width="1.3"/>
  <circle cx="42" cy="40" r="1.6" fill="#38BDF8"/>
</svg>
